<?xml version="1.0" standalone="no"?>
<!DOCTYPE svg PUBLIC "-//W3C//DTD SVG 20010904//EN"
 "http://www.w3.org/TR/2001/REC-SVG-20010904/DTD/svg10.dtd">
<svg version="1.0" xmlns="http://www.w3.org/2000/svg"
 width="640.000000pt" height="242.000000pt" viewBox="0 0 640.000000 242.000000"
 preserveAspectRatio="xMidYMid meet">

<g transform="translate(0.000000,242.000000) scale(0.100000,-0.100000)"
fill="#000000" stroke="none">
<path d="M3765 1413 c0 -131 -4 -259 -8 -285 l-8 -48 58 0 58 0 0 285 0 285
-50 0 -50 0 0 -237z"/>
<path d="M3925 1413 c0 -131 -3 -259 -7 -285 l-7 -46 57 -4 57 -3 0 287 0 288
-50 0 -50 0 0 -237z"/>
<path d="M4080 1601 c0 -50 9 -61 51 -61 21 0 39 3 40 8 1 4 2 23 2 42 2 35 2
35 -45 38 -47 3 -48 3 -48 -27z"/>
<path d="M4345 1611 c-63 -29 -97 -72 -102 -128 -5 -55 21 -118 49 -118 9 0
20 -4 25 -9 4 -5 3 -6 -4 -2 -7 4 -13 3 -13 -3 0 -9 66 -37 148 -61 23 -7 42
-17 42 -22 0 -5 6 -6 13 -2 6 4 9 4 5 -1 -4 -4 -3 -14 3 -21 13 -16 -3 -49
-32 -65 -30 -15 -127 -13 -178 6 -24 8 -45 14 -47 12 -2 -1 -6 -21 -9 -43 -7
-38 -6 -40 32 -57 22 -9 63 -21 93 -27 61 -12 153 -3 143 13 -3 6 -1 7 6 3 17
-11 55 17 80 58 16 25 21 48 20 88 -2 49 -5 56 -46 96 -24 23 -48 40 -53 37
-6 -4 -10 -2 -10 2 0 5 -24 17 -52 27 -29 10 -67 27 -84 37 -17 10 -33 16 -36
13 -3 -2 -2 14 2 36 4 22 11 44 15 48 15 15 159 7 194 -10 18 -10 37 -15 42
-12 5 3 9 29 9 58 l0 53 -46 7 c-86 11 -167 6 -209 -13z"/>
<path d="M2504 1578 c20 -147 15 -361 -10 -480 l-6 -28 58 0 59 0 0 275 0 275
-54 0 -53 0 6 -42z"/>
<path d="M3133 1508 c1 -44 -2 -73 -8 -72 -5 1 -22 4 -37 8 -28 6 -28 6 -28
-44 l0 -51 32 3 33 3 -4 -104 c-4 -146 23 -191 117 -191 40 1 78 22 67 39 -3
7 0 8 9 5 20 -8 22 29 2 45 -10 9 -20 9 -39 0 -33 -15 -57 -6 -57 21 0 14 -4
19 -12 14 -6 -4 -8 -3 -5 3 4 6 7 47 8 93 l1 82 54 -4 54 -5 0 47 0 47 -51 -5
-52 -5 8 59 c4 32 8 64 8 69 1 6 -21 11 -50 13 l-52 3 2 -73z"/>
<path d="M2870 1458 c-19 -5 -41 -14 -47 -20 -9 -7 -15 -6 -19 6 -4 12 -19 16
-53 16 l-46 0 3 -133 c2 -74 -1 -158 -6 -188 -6 -30 -9 -55 -8 -56 1 -1 26 -3
55 -5 l54 -3 -2 142 -2 143 26 10 c43 16 73 12 97 -15 22 -23 23 -29 17 -137
-3 -62 -10 -121 -14 -130 -6 -16 0 -18 55 -18 l62 0 -7 143 c-5 109 -11 152
-26 183 -27 58 -77 80 -139 62z"/>
<path d="M5415 1444 c-48 -25 -48 -25 -62 -4 -23 33 -138 23 -165 -15 -4 -5
-8 0 -8 13 0 20 -5 22 -56 22 l-56 0 7 -40 c14 -84 8 -253 -11 -322 -5 -16 2
-18 53 -18 l59 0 -4 118 c-5 134 2 157 50 167 26 6 35 3 50 -15 21 -26 25
-123 8 -210 -6 -29 -9 -54 -8 -55 2 -2 26 -6 54 -10 l52 -7 -4 133 c-3 112 -1
136 13 151 21 23 69 23 82 0 15 -29 20 -112 10 -191 -5 -41 -8 -75 -6 -76 1
-1 25 -5 53 -8 l51 -6 -4 137 c-5 172 -9 196 -36 225 -35 37 -68 40 -122 11z"/>
<path d="M3445 1441 c-84 -49 -122 -184 -76 -272 12 -23 28 -47 34 -54 36 -36
138 -65 174 -50 10 4 26 9 35 10 20 2 88 52 88 65 0 5 -13 18 -29 29 l-29 21
-30 -25 c-30 -25 -72 -32 -118 -19 -22 6 -63 79 -51 90 8 8 223 5 256 -3 24
-6 24 -5 18 56 -3 34 -11 68 -17 76 -7 8 -9 15 -4 15 16 0 -42 53 -73 66 -45
19 -141 17 -178 -5z m163 -77 c12 -14 22 -34 22 -45 0 -17 -8 -19 -95 -19 -52
0 -95 2 -95 5 0 19 31 75 47 84 29 18 95 4 121 -25z"/>
<path d="M4953 1453 l-42 -4 6 -124 c7 -139 -2 -168 -53 -178 -40 -7 -71 8
-90 44 -13 27 -16 54 -12 146 l4 113 -47 0 -46 0 4 -137 c5 -155 17 -193 73
-230 36 -25 98 -31 118 -11 7 7 12 9 12 5 0 -3 12 -2 26 4 24 8 25 8 14 -6
-11 -13 -6 -15 44 -15 l57 0 -8 53 c-4 28 -8 118 -8 200 0 81 -2 146 -5 145
-3 -1 -24 -3 -47 -5z"/>
<path d="M4092 1398 c11 -55 4 -216 -11 -280 l-9 -38 38 0 c21 0 44 -2 52 -5
10 -4 13 31 13 185 l0 190 -46 0 -46 0 9 -52z"/>
</g>
</svg>
